<svg id="OBJECTS" xmlns="http://www.w3.org/2000/svg" viewBox="0 0 360 115.29"><defs><style>.cls-1{font-size:39.83px;font-family:Poppins-Bold, Poppins;font-weight:700;}.cls-2{fill:#bf4c4c;}</style></defs><text class="cls-1" transform="translate(172.04 69.67)">OW <tspan x="0" y="35">BUILDERS</tspan></text><path class="cls-2" d="M142.94,49.27,124.2,58.69V37.5l-11.79-5.92V12l-18-9L64.66,17.58V105.7H163.2V59.45ZM94.43,4.59,111,12.9v18L94.43,22.54Zm12.71,99.66H101V27.47l6.14,3.08Zm-34.93,0H70.75v-88l1.46-.72Zm7.74,0H78.5V12.41L80,11.7Zm7.75,0H86.25V8.61L87.7,7.9Zm6.73-4.41V24.16l5.12,2.58v77.51H94.43Zm14.16,4.41v-73l6.14,3.08v69.89h-6.14Zm14.16-55.62-.06,0v1.63l.06,0v9.17l-.06,0v44.8h-6.51V35.09l6.57,3.31Zm31.05,7.72,3.95,2v45.91H153.8Zm-1.45,47.9H148.4V53.64l3.95,2ZM142.94,50.9l4,2v51.34h-4Zm18.81,53.35H159.2V59.07l2.55,1.28Z"/><path class="cls-2" d="M56.65,77.57a1.36,1.36,0,0,1-1.36-1.36V75a4.87,4.87,0,0,0,2.65-8.61V16.85l.89-.44V13.63L30,28.13V25.91l-7.27-3.36-7.26,3.36v9.52L14.38,36V34.12c0-.44-.42-.53-.86-.53a55.51,55.51,0,0,0-5.73,0L2.53,36.24a.59.59,0,0,0-.33.53v7.81c0,.45.42.53.86.53a53.71,53.71,0,0,0,5.74,0l5.25-2.64a.59.59,0,0,0,.33-.53v-3.2l1.07-.53V105.7H30V30.9L51.77,20V66.41a4.86,4.86,0,0,0,2.06,8.52v1.28A2.82,2.82,0,0,0,56.65,79,1.37,1.37,0,0,1,58,80.39v2.47a2.68,2.68,0,1,1-5.35,0v-1H51.21v1a4.13,4.13,0,1,0,8.25,0V80.39A2.81,2.81,0,0,0,56.65,77.57ZM28.52,104.25H22.71V86.86h5V85.4h-5V77.88h5V76.42h-5V68.9h5V67.44h-5V59.92h5V58.46h-5V50.94h5V49.48h-5V42h5V40.5h-5v-6L25.85,33H27.7v-.93l.82-.42Zm0-75.39-5.29,2.66h-.52V24.15l5.81,2.69Zm24.7,36.73V19.22l3.27-1.64v48a4.75,4.75,0,0,0-3.27,0Z"/></svg>