<svg id="OBJECTS" xmlns="http://www.w3.org/2000/svg" viewBox="0 0 175.8 167.05"><defs><style>.cls-1{font-size:24.18px;font-family:Poppins-Bold, Poppins;font-weight:700;}.cls-2{font-size:13.3px;font-family:PlayfairDisplay-Regular, Playfair Display;}.cls-3{letter-spacing:-0.02em;}.cls-4{letter-spacing:0em;}.cls-5{letter-spacing:-0.01em;}.cls-6{letter-spacing:-0.01em;}.cls-7{letter-spacing:-0.02em;}.cls-8{fill:#bf4c4c;}</style></defs><text class="cls-1" transform="translate(6.19 144.34)">OW BUILDERS</text><text class="cls-2" transform="translate(5.61 161.3) scale(0.77 1)"><tspan class="cls-3">A</tspan><tspan class="cls-4" x="8.11" y="0">RCHITECTURE &amp; </tspan><tspan class="cls-5" x="117.8" y="0">D</tspan><tspan x="127.3" y="0">EVEL</tspan><tspan class="cls-6" x="159.71" y="0">O</tspan><tspan x="169.46" y="0">PMEN</tspan><tspan class="cls-7" x="206.33" y="0">T</tspan></text><path class="cls-8" d="M143.13,48.45l-24.4,12.27v-11L110.3,45.5V28.44l-7.65-3.84V11L87.47,3.34,72.28,11V24.6l-7.64,3.84V45.5l-8.43,4.23v11L31.73,48.45,5.61,61.58V121.3H169.26V61.58Zm-86.92,71.2H31.73V106.12l24.48,12.3Zm0-3.08-24.48-12.3V91.35l24.48,12.3Zm0-14.77L31.73,89.5V76.58l24.48,12.3Zm0-14.77L31.73,74.73V61.81l24.48,12.3Zm0-14.77L31.73,60V50.3L56.21,62.6ZM87.47,5.19h0L101,12V23.77L87.47,17h0Zm0,13.63h0l21.18,10.64V44.67L87.47,34h0Zm29.6,42.51L87.5,46.46v1.85L117,63.14v11L87.5,59.28v1.85L117,76v11L87.5,72.1v1.84L117,88.77v11L87.5,84.91v1.85L117,101.59v11L87.5,97.73v1.85L117,114.41v5.24H105.6l-18.1-9.1v1.85l14.43,7.25H87.47v-7.27L73,119.65H69.33l18.14-9.12h0v-11L57.92,114.41v-1.85L87.47,97.72h0v-11L57.92,101.59V99.75L87.47,84.9h0v-11L57.92,88.77V86.93L87.47,72.08h0v-11L57.92,76V74.11L87.47,59.26h0v-11L57.92,63.14V61.29L87.47,46.44h0V35.87h0l29.6,14.88Zm50.54,58.32H143.13V104.41l24.48,12.3Zm0-4.78-24.48-12.3V90.08l24.48,12.3Zm0-14.34-24.48-12.3V75.74L167.61,88Zm0-14.33L143.13,73.9V61.41l24.48,12.3Zm0-14.34-24.48-12.3V50.3l24.48,12.3Z"/></svg>