<svg id="OBJECTS" xmlns="http://www.w3.org/2000/svg" viewBox="0 0 169.15 150.12"><defs><style>.cls-1{font-size:24.18px;font-family:Poppins-Bold, Poppins;font-weight:700;}.cls-2{font-size:13.3px;font-family:PlayfairDisplay-Regular, Playfair Display;}.cls-3{letter-spacing:-0.02em;}.cls-4{letter-spacing:0em;}.cls-5{letter-spacing:-0.01em;}.cls-6{letter-spacing:-0.01em;}.cls-7{letter-spacing:-0.02em;}.cls-8{fill:#bf4c4c;}</style></defs><text class="cls-1" transform="translate(3.55 129.95)">OW BUILDERS</text><text class="cls-2" transform="translate(2.97 146.91) scale(0.77 1)"><tspan class="cls-3">A</tspan><tspan class="cls-4" x="8.11" y="0">RCHITECTURE &amp; </tspan><tspan class="cls-5" x="117.8" y="0">D</tspan><tspan x="127.3" y="0">EVEL</tspan><tspan class="cls-6" x="159.71" y="0">O</tspan><tspan x="169.46" y="0">PMEN</tspan><tspan class="cls-7" x="206.33" y="0">T</tspan></text><path class="cls-8" d="M150.5,55.38l-19.69,9.9V43l-12.38-6.22V16.23l-18.9-9.5L68.26,22.09v92.57H171.78V66.08Zm-51-46.94,17.37,8.73V36L99.53,27.29Zm13.35,104.7h-6.44V32.47l6.44,3.24Zm-36.7,0H74.66V20.65l1.52-.75Zm8.14,0H82.8V16.66l1.52-.75Zm8.14,0H90.93V12.66l1.53-.75Zm7.07-4.63V29l5.38,2.7v81.44H99.53Zm14.88,4.63V36.48l6.45,3.24v73.42h-6.45ZM129.28,54.7l-.06,0v1.71l.06,0V66l-.06,0v47.06h-6.84V40.49l6.9,3.46Zm32.63,8.12,4.14,2.08v48.24h-4.14Zm-1.53,50.32h-4.15V60l4.15,2.08Zm-9.88-56,4.21,2.11v53.94H150.5Zm19.76,56.05h-2.68V65.67L170.26,67Z" transform="translate(-2.64 -6.73)"/><path class="cls-8" d="M59.84,85.11a1.43,1.43,0,0,1-1.43-1.43V82.43a5.12,5.12,0,0,0,2.79-9.05V21.32l.93-.47V17.94L31.82,33.17V30.83l-7.63-3.52-7.63,3.52v10l-1.13.57V39.47c0-.47-.44-.56-.9-.56-2,0-5.61-.21-6,0L3,41.69a.61.61,0,0,0-.34.55v8.22c0,.46.44.55.9.55,1.63,0,5.61.21,6,0l5.53-2.77a.64.64,0,0,0,.34-.56V44.32l1.13-.57v70.91H31.82V36.08l22.89-11.5v48.8a5.12,5.12,0,0,0,2.17,9v1.34a3,3,0,0,0,3,3,1.43,1.43,0,0,1,1.43,1.43v2.6a2.81,2.81,0,0,1-5.62,0v-1H54.13v1a4.34,4.34,0,1,0,8.67,0v-2.6A3,3,0,0,0,59.84,85.11Zm-29.55,28h-6.1V94.87h5.24V93.34H24.19V85.43h5.24V83.91H24.19V76h5.24V74.47H24.19V66.56h5.24V65H24.19V57.13h5.24V55.6H24.19V47.69h5.24V46.17H24.19V39.92l3.29-1.66h1.95v-1l.86-.43Zm0-79.2-5.56,2.79h-.54V29l6.1,2.82Zm26,38.58V23.81l3.43-1.72V72.52a5.14,5.14,0,0,0-1.72-.3A5.08,5.08,0,0,0,56.24,72.52Z" transform="translate(-2.64 -6.73)"/></svg>