<?xml version="1.0" encoding="utf-8"?>
<!-- Generator: Adobe Illustrator 24.2.3, SVG Export Plug-In . SVG Version: 6.00 Build 0)  -->
<svg version="1.1" id="Layer_1" xmlns="http://www.w3.org/2000/svg" xmlns:xlink="http://www.w3.org/1999/xlink" x="0px" y="0px"
	 viewBox="0 0 1621 506" style="enable-background:new 0 0 1621 506;" xml:space="preserve">
<style type="text/css">
	.st0{font-family:'HelveticaNeue-Bold';}
	.st1{font-size:202px;}
	.st2{letter-spacing:4;}
	.st3{fill:none;stroke:#000000;stroke-width:0.25;stroke-miterlimit:10;}
	.st4{fill:#FC8181;}
</style>
<text transform="matrix(1 0 0 1 540 319.02)" class="st0 st1 st2">OW</text>
<text transform="matrix(1 0 0 1 540 319.02)" class="st3 st0 st1 st2">OW</text>
<text transform="matrix(1 0 0 1 540 481.02)" class="st0 st1 st2">BUILDERS</text>
<text transform="matrix(1 0 0 1 540 481.02)" class="st3 st0 st1 st2">BUILDERS</text>
<path d="M394.5,68.4c-12.9-12.9-34.8-12.9-51.1-0.1l-16.6,13.1c-6.2-3-12.5-5.6-19-7.9l-2.5-21c-2.4-20.5-18-36.1-36.2-36.1h-51.8
	c-18.2,0-33.8,15.5-36.2,36.1l-2.5,21c-6.5,2.3-12.8,4.9-19,7.9l-16.6-13.1c-16.3-12.8-38.2-12.8-51.1,0.1L55.4,105
	c-12.9,12.9-12.9,34.8-0.1,51.1l13.1,16.6c-3,6.2-5.6,12.5-7.9,19l-21,2.5c-20.6,2.4-36.1,18-36.1,36.2v51.8
	c0,18.2,15.5,33.7,36.1,36.2l21,2.5c2.3,6.5,4.9,12.8,7.9,19l-13.1,16.6c-12.8,16.3-12.8,38.2,0.1,51.1l18.3,18.3L87,412.5
	l-18.3-18.3c-6.1-6.2-5.6-17.5,1.4-26.2l16.8-21.3c2.3-2.9,2.7-6.8,1-10.1c-4.5-8.8-8.3-17.9-11.3-27.3c-1.1-3.5-4.2-6-7.8-6.5
	l-26.9-3.2c-5.2-0.5-10-2.6-14-6c-3.4-2.9-5.5-7.1-5.6-11.6v-51.8c0-8.7,8.4-16.2,19.5-17.6l26.9-3.2c3.6-0.4,6.7-3,7.8-6.4
	c3-9.4,6.8-18.5,11.3-27.3c1.7-3.3,1.3-7.2-1-10.1l-16.8-21.3c-7-8.8-7.5-20.1-1.4-26.2l36.6-36.6c6.2-6.1,17.4-5.6,26.2,1.4
	l21.3,16.8c2.9,2.3,6.8,2.7,10.1,1c8.8-4.5,17.9-8.3,27.3-11.3c3.5-1.1,6-4.2,6.4-7.8l3.2-26.9c1.3-11.1,8.9-19.5,17.6-19.5h51.8
	c8.7,0,16.3,8.4,17.6,19.5l3.2,26.9c0.4,3.7,3,6.7,6.5,7.8c9.4,3,18.5,6.8,27.3,11.3c1.3,0.7,2.8,1.1,4.3,1.1c2.1,0,4.2-0.7,5.8-2
	L355,83.1c8.8-7,20.1-7.6,26.2-1.4l18.3,18.3l13.2-13.3L394.5,68.4z"/>
<path d="M243.2,162.3c-51.9,0-94,42-94,93.9c0,24.9,9.9,48.9,27.5,66.5l13.2-13.2c-29.7-29.1-30.2-76.7-1.1-106.4
	s76.7-30.2,106.4-1.1c0.4,0.4,0.7,0.7,1.1,1.1l13.2-13.2C292.1,172.2,268.2,162.3,243.2,162.3z"/>
<path d="M108,265.6c5.2,0,9.4-4.2,9.4-9.4c-0.2-55.2,35.7-104,88.4-120.2c4.9-1.6,7.6-6.9,6-11.8c-1.3-3.8-4.8-6.4-8.8-6.4
	c-0.9,0-1.9,0.1-2.8,0.4c-29.1,9.1-54.6,27.2-72.9,51.6c-18.7,24.9-28.8,55.3-28.7,86.5C98.6,261.4,102.8,265.6,108,265.6L108,265.6
	z"/>
<path d="M245.2,132.4c-5.2,0-9.4-4.2-9.4-9.4s4.2-9.4,9.4-9.4s9.4,4.2,9.4,9.4c0,0,0,0,0,0C254.5,128.2,250.3,132.4,245.2,132.4z"/>
<path class="st4" d="M483,230.4v51.8c0,18.2-15.5,33.7-36.1,36.2l-21,2.5c-2.3,6.5-4.9,12.8-7.9,19l13.1,16.6
	c12.8,16.3,12.8,38.2-0.1,51.1l-36.6,36.6c-12.9,12.9-34.8,12.9-51.1,0.1l-16.6-13.1c-6.2,3-12.5,5.6-19,7.9l-2.5,21
	c-2.4,20.5-18,36.1-36.2,36.1h-51.7c-18.2,0-33.8-15.5-36.2-36.1l-2.5-21c-6.5-2.3-12.8-4.9-19-7.9l-16.6,13.1
	c-16.3,12.8-38.2,12.8-51.1-0.1l-18.3-18.3L87,412.5l18.3,18.3c6.1,6.2,17.4,5.6,26.2-1.4l21.3-16.8c2.9-2.3,6.8-2.7,10.1-1
	c8.7,4.5,17.9,8.3,27.2,11.3c3.5,1.1,6,4.2,6.4,7.8l3.2,26.9c1.3,11.1,8.9,19.5,17.6,19.5h51.8c8.7,0,16.3-8.4,17.6-19.5l3.2-26.9
	c0.4-3.7,3-6.7,6.5-7.8c9.4-3,18.5-6.8,27.3-11.3c3.3-1.7,7.2-1.3,10.1,1l21.3,16.7c8.8,7,20.1,7.5,26.2,1.4l36.6-36.6
	c6.1-6.1,5.6-17.4-1.4-26.2l-16.8-21.3c-2.3-2.9-2.7-6.8-1-10.1c4.5-8.8,8.3-17.9,11.3-27.3c1.1-3.5,4.2-6,7.8-6.5l26.9-3.2
	c11.1-1.3,19.5-8.9,19.5-17.6v-51.8c0-8.7-8.4-16.2-19.5-17.6l-26.9-3.2c-3.6-0.4-6.7-3-7.8-6.4c-3-9.4-6.8-18.5-11.3-27.3
	c-1.7-3.3-1.3-7.2,1-10.1l16.8-21.3c7-8.8,7.5-20.1,1.4-26.2L399.5,100l13.2-13.3l18.3,18.3c12.9,12.9,12.9,34.8,0.1,51.1
	l-13.1,16.6c3,6.2,5.6,12.5,7.9,19l21,2.5C467.5,196.6,483,212.2,483,230.4z"/>
<path class="st4" d="M337.2,256.2c0,51.9-42,94-93.9,94c-24.9,0-48.9-9.9-66.5-27.5l13.2-13.2c29.1,29.7,76.7,30.2,106.4,1.1
	s30.2-76.7,1.1-106.4c-0.4-0.4-0.7-0.7-1.1-1.1l13.2-13.2C327.3,207.4,337.2,231.3,337.2,256.2z"/>
</svg>
