<svg id="Layer_1" data-name="Layer 1" xmlns="http://www.w3.org/2000/svg" viewBox="0 0 1372 506"><defs><style>.cls-1{font-size:202px;stroke:#000;stroke-miterlimit:10;stroke-width:0.25px;font-family:HelveticaNeue-CondensedBold, Helvetica Neue;font-weight:700;letter-spacing:0.02em;}.cls-2{fill:#1e88e5;}.cls-3{fill:#fbc326;}</style></defs><text class="cls-1" transform="translate(540 319.02)">OW<tspan x="0" y="162">BUILDERS</tspan></text><path class="cls-2" d="M394.48,68.43c-12.87-12.87-34.83-12.9-51.09-.1L326.8,81.45a188.81,188.81,0,0,0-19-7.89l-2.47-21c-2.44-20.55-18-36.06-36.18-36.06H217.38c-18.2,0-33.76,15.51-36.18,36.06l-2.49,21a190.76,190.76,0,0,0-19,7.89L143.11,68.33c-16.26-12.8-38.22-12.77-51.09.1L55.43,105c-12.87,12.87-12.9,34.83-.1,51.09l13.09,16.61a195.49,195.49,0,0,0-7.86,19l-21,2.49C19,196.62,3.5,212.18,3.5,230.38v51.76c0,18.18,15.51,33.74,36.06,36.16l21,2.49a188.81,188.81,0,0,0,7.89,19L55.33,356.39c-12.8,16.26-12.77,38.22.1,51.09l18.29,18.3L87,412.54l-18.3-18.29c-6.13-6.16-5.56-17.45,1.39-26.25l16.76-21.27a9.31,9.31,0,0,0,1-10.09,174.25,174.25,0,0,1-11.29-27.29,9.39,9.39,0,0,0-7.84-6.47l-26.88-3.16a25.34,25.34,0,0,1-13.95-6,15.66,15.66,0,0,1-5.59-11.56V230.38c0-8.7,8.4-16.25,19.54-17.57l26.88-3.19a9.36,9.36,0,0,0,7.82-6.45,174.23,174.23,0,0,1,11.31-27.28,9.37,9.37,0,0,0-1-10.12L70.05,144.5c-6.95-8.8-7.55-20.09-1.39-26.23l36.59-36.61c6.16-6.13,17.45-5.56,26.25,1.39l21.27,16.76a9.31,9.31,0,0,0,10.09,1,174.47,174.47,0,0,1,27.31-11.29,9.41,9.41,0,0,0,6.45-7.84l3.19-26.88c1.32-11.12,8.87-19.54,17.57-19.54h51.76c8.71,0,16.26,8.42,17.58,19.54l3.16,26.88a9.39,9.39,0,0,0,6.47,7.84,176.26,176.26,0,0,1,27.29,11.29,9.08,9.08,0,0,0,4.29,1.06,9.24,9.24,0,0,0,5.8-2L355,83.05c8.8-7,20.09-7.55,26.23-1.39L399.54,100l13.24-13.26Z"/><path class="cls-2" d="M243.25,162.27a93.95,93.95,0,0,0-66.43,160.41l13.23-13.23a75.24,75.24,0,1,1,106.4-106.4l13.23-13.23A93.76,93.76,0,0,0,243.25,162.27Z"/><path class="cls-2" d="M108,265.61a9.36,9.36,0,0,0,9.36-9.36A125.29,125.29,0,0,1,205.81,136,9.37,9.37,0,0,0,203,117.73a9.26,9.26,0,0,0-2.78.43,145.82,145.82,0,0,0-72.87,51.57,143.42,143.42,0,0,0-28.73,86.52A9.37,9.37,0,0,0,108,265.61Z"/><path class="cls-2" d="M245.17,132.4a9.37,9.37,0,1,1,9.37-9.36A9.37,9.37,0,0,1,245.17,132.4Z"/><path class="cls-3" d="M483,230.38v51.76c0,18.18-15.51,33.74-36.06,36.18l-21,2.47a188.81,188.81,0,0,1-7.89,19l13.09,16.59c12.83,16.26,12.8,38.22-.07,51.09l-36.59,36.61c-12.87,12.85-34.83,12.88-51.09.08l-16.61-13.09a193.44,193.44,0,0,1-19,7.86l-2.47,21c-2.44,20.55-18,36.06-36.18,36.06H217.38c-18.2,0-33.76-15.51-36.18-36.06l-2.49-21a198.65,198.65,0,0,1-19-7.86l-16.61,13.09c-16.26,12.8-38.22,12.77-51.09-.1l-18.3-18.29L87,412.54l18.31,18.3c6.14,6.16,17.43,5.56,26.23-1.39l21.27-16.76a9.37,9.37,0,0,1,10.12-1A174.14,174.14,0,0,0,190.17,423a9.41,9.41,0,0,1,6.45,7.84l3.19,26.88c1.32,11.14,8.87,19.54,17.57,19.54h51.76c8.71,0,16.26-8.42,17.58-19.54l3.16-26.88a9.39,9.39,0,0,1,6.47-7.84,173.53,173.53,0,0,0,27.26-11.29,9.37,9.37,0,0,1,10.12,1L355,429.45c8.8,6.95,20.09,7.55,26.23,1.39l36.61-36.61c6.13-6.14,5.56-17.43-1.39-26.23l-16.76-21.27a9.31,9.31,0,0,1-1-10.09A175,175,0,0,0,410,309.35a9.39,9.39,0,0,1,7.84-6.47l26.88-3.16c11.12-1.32,19.54-8.87,19.54-17.58V230.38c0-8.7-8.4-16.25-19.54-17.57l-26.88-3.19a9.41,9.41,0,0,1-7.84-6.45,174.14,174.14,0,0,0-11.29-27.28,9.37,9.37,0,0,1,1-10.12l16.76-21.27c6.95-8.8,7.55-20.09,1.39-26.23L399.54,100l13.24-13.26L431.09,105c12.85,12.87,12.88,34.83.08,51.09l-13.09,16.61a195.49,195.49,0,0,1,7.86,19l21,2.49C467.49,196.62,483,212.18,483,230.38Z"/><path class="cls-3" d="M337.23,256.25a93.95,93.95,0,0,1-160.41,66.43l13.23-13.23a75.24,75.24,0,1,0,106.4-106.4l13.23-13.23A93.76,93.76,0,0,1,337.23,256.25Z"/></svg>